<?xml version="1.0" encoding="UTF-8"?>
<svg id="Layer_1" data-name="Layer 1" xmlns="http://www.w3.org/2000/svg" viewBox="0 0 278.69 316.5">
  <defs>
    <style>
      .cls-1 {
        fill: #fbfafa;
      }

      .cls-2 {
        fill: none;
        stroke: #000;
        stroke-miterlimit: 10;
        stroke-width: 3px;
      }
    </style>
  </defs>
  <path class="cls-1" d="M5.54,79.84C51.57,53.87,97.6,27.89,143.63,1.91c44.06,26.15,88.11,52.3,132.17,78.46-20.62,12.82-41.23,25.65-61.85,38.47,20.45,12.94,40.91,25.87,61.36,38.81,.16,26.26,.33,52.52,.49,78.78l-133.24,76.18-3.77,2.15L2.99,234.01c22.38-12.52,44.75-25.03,67.13-37.55-21.59-13.13-43.18-26.27-64.77-39.4-.48-17.96-.61-36.43-.32-55.38,.11-7.36,.28-14.63,.51-21.83Z"/>
  <g>
    <polyline class="cls-2" points="213.8 118.78 142.56 79.16 75.54 120.05"/>
    <g>
      <path class="cls-2" d="M4.33,79.52C50.66,53.59,96.99,27.66,143.33,1.73l132.47,78.64-62,38.41,62,38.72v78.93l-137.01,78.33L2.99,234.01l66.84-37.81L5.11,157.5c-.26-25.99-.52-51.98-.78-77.97Z"/>
      <path class="cls-2" d="M275.8,236.43C185.36,184.36,94.93,132.28,4.5,80.2c90.43,52.08,180.86,104.15,271.3,156.23Z"/>
      <polyline class="cls-2" points="69.83 196.21 140.6 236.43 208.46 197.3"/>
    </g>
  </g>
</svg>